<svg fill="none" xmlns="http://www.w3.org/2000/svg" viewBox="0 0 120 40" width="120" height="40"><g clip-path="url(#a)"><path d="m42.299 35.388-1.472-4.427H39l2.25 6.188h1.92l2.238-6.188H43.76l-1.46 4.427Zm8.841-2.083c-.895-.13-1.188-.284-1.188-.675 0-.39.319-.64.872-.64.295 0 .513.063.668.182.156.119.25.309.298.563h1.567c-.153-1.421-1.178-1.919-2.544-1.919-1.261 0-2.438.64-2.438 1.93 0 1.207.637 1.681 2.273 1.928.883.131 1.25.31 1.25.735s-.306.68-.965.68c-.371 0-.625-.081-.794-.23-.169-.15-.254-.368-.29-.647h-1.594c.062 1.338 1.024 2.071 2.687 2.071 1.622 0 2.591-.698 2.591-2.035 0-1.337-.85-1.718-2.393-1.943Zm5.026 1.872v-3h1.292v-1.214h-1.291v-1.392h-1.693v1.39h-.786v1.217h.787v3.15c0 1.288.694 1.95 1.983 1.95.351.004.701-.052 1.034-.166v-1.32a1.588 1.588 0 0 1-.646.117c-.434 0-.68-.236-.68-.732Zm6.554-3.297c-.27-.49-.944-1.06-2.053-1.06-1.712 0-3.041 1.294-3.041 3.224 0 1.727 1.088 3.235 3.041 3.235.854 0 1.664-.337 2.052-1.051v.923h1.563v-6.187h-1.563v.915Zm.035 2.277a1.849 1.849 0 0 1-.294.878c-.27.422-.73.768-1.483.768-1.279 0-1.765-1.087-1.765-1.72v-.013c0-.779.54-1.77 1.75-1.77.896 0 1.381.483 1.611.953.142.28.205.592.181.904Zm-15.062-3.195h-1.687v6.188h1.687v-6.188Zm-.947-2.5a.952.952 0 1 0 .413 1.844.953.953 0 0 0-.413-1.844Z" fill="#313030"/><path d="m31.12 39.5-2.764-4.858h5.528L31.12 39.5Z" fill="#006196"/><path d="M33.882 34.642h-5.526l2.763-4.86 2.763 4.86Z" fill="#2BA8E0"/><path d="M31.875 28.457h5.527l-3.514 6.185-2.763-4.859.75-1.326Z" fill="#006196"/><path d="m30.365 28.458.75 1.325-2.763 4.858-3.514-6.184h5.527Z" fill="#6ECFF5"/><path d="M2.906 39.282h1.719v-3.063c.32.605 1.018 1.08 1.976 1.08 1.539 0 2.698-1.15 2.698-3.202v-.095c0-2.051-1.183-3.177-2.698-3.177a2.297 2.297 0 0 0-1.976 1.117v-.972H2.906v8.312Zm3.183-3.32c-.937 0-1.527-.605-1.527-1.85v-.095c0-1.245.616-1.875 1.515-1.875.864 0 1.48.616 1.48 1.875v.095c0 1.21-.52 1.85-1.468 1.85ZM13.07 36c-.97 0-1.515-.711-1.515-1.897v-.095c0-1.187.568-1.875 1.515-1.875.959 0 1.515.711 1.515 1.897v.083c0 1.173-.556 1.887-1.515 1.887Zm-.012 1.304c1.858 0 3.266-1.245 3.266-3.2v-.096c0-1.932-1.396-3.177-3.254-3.177s-3.266 1.268-3.266 3.213v.095c0 1.93 1.408 3.163 3.254 3.163v.002Zm3.867-.133h1.716v-3.108c0-1.188.734-1.601 2-1.59v-1.598c-1.006.012-1.61.45-2 1.28v-1.188h-1.716v6.204ZM120 17.165c-.073.276-.125.558-.213.826-.567 1.585-1.738 2.55-3.287 3.076-1.82.625-3.636.618-5.379-.264-1.596-.803-2.404-2.15-2.659-3.878a1.179 1.179 0 0 1 0-.169.89.89 0 0 1 .162-.03h3.716c.188 0 .247.067.302.241.349 1.107 2.111 1.488 2.897.625a1.063 1.063 0 0 0-.025-1.487 3.115 3.115 0 0 0-1-.661c-.75-.3-1.537-.513-2.297-.784a15.314 15.314 0 0 1-1.625-.668c-2.338-1.151-2.635-4.095-1.014-5.848a6.02 6.02 0 0 1 3.668-1.847 6.264 6.264 0 0 1 3.489.38c1.74.761 2.601 2.147 2.807 4.013h-4.105c-.25-.992-1.154-1.4-2.072-.945-.638.316-.791 1.026-.25 1.487.351.292.752.518 1.184.667.769.279 1.581.449 2.35.731.64.228 1.253.525 1.83.884a3.318 3.318 0 0 1 1.468 2.338c.016.072.037.143.063.213l-.01 1.1ZM7.094 15.285A7.64 7.64 0 0 1 4.992.5a7.462 7.462 0 0 1 5.526.092c1.827.74 3.15 2.033 4.05 3.825a7.447 7.447 0 0 1 1.86-2.465C18.713.022 21.312-.513 24.115.51c2.803 1.024 4.424 3.075 4.92 5.995a7.154 7.154 0 0 1-.875 4.868c-1.79 3.143-3.596 6.277-5.421 9.404a.416.416 0 0 1-.275.212c-1.58.014-3.16 0-4.812 0l3.3-5.716c-2.92-.327-5.026-1.781-6.375-4.365-.125.213-.238.438-.359.638l-5.302 9.187c-.079.138-.142.255-.353.253-1.528-.013-3.056 0-4.584 0a.68.68 0 0 1-.17-.02c1.097-1.89 2.183-3.783 3.284-5.682ZM21.496 4.16a3.49 3.49 0 1 0 .043 6.979 3.49 3.49 0 0 0-.043-6.98ZM4.148 7.658a3.506 3.506 0 1 0 3.499-3.496A3.486 3.486 0 0 0 4.41 6.327a3.447 3.447 0 0 0-.263 1.33h.001Zm89.012-.345a2.53 2.53 0 0 0-1.51 1 .333.333 0 0 0 0 .449c1.785 2.55 1.03 7.346-3.46 8.378a7.84 7.84 0 0 1-3.613-.044 8.379 8.379 0 0 1-.818-.282c-.302.411-.212.937.28 1.149.427.192.885.304 1.352.327 1.162.028 2.337-.062 3.49-.036.66.004 1.317.097 1.953.276a4.25 4.25 0 0 1 2.92 4.487c-.198 2.23-1.313 3.825-3.42 4.635a10.364 10.364 0 0 1-7.837-.085c-1.38-.563-2.357-1.529-2.695-3.027-.3-1.338-.017-2.514 1.035-3.453l.08-.09c-1.805-2.337-1.822-3.75-.114-5.983-.272-.638-.603-1.21-.78-1.835-.705-2.505.52-5.062 2.956-6.235a7.675 7.675 0 0 1 4.934-.562.36.36 0 0 0 .442-.177 4.658 4.658 0 0 1 2.746-1.86c.164-.043.273-.046.37.124.548.938 1.11 1.858 1.69 2.844Zm-4.488 4.463a2.413 2.413 0 1 0-3.325 2.22c.59.241 1.253.241 1.844 0a2.391 2.391 0 0 0 1.487-2.216l-.006-.004Zm-1.875 9.637v.039h-1.125a2.081 2.081 0 0 0-.346.046 1.643 1.643 0 0 0-1.388 1.277c-.12.572.193 1.188.818 1.57.172.106.355.194.546.26.89.32 1.86.342 2.763.063a2.79 2.79 0 0 0 1.011-.576 1.553 1.553 0 0 0 .455-1.666c-.188-.608-.701-.85-1.275-.924-.487-.069-.98-.067-1.47-.096l.011.007ZM40.152 7.867V.494h4.286v20.483H40.4v-1.449a1.58 1.58 0 0 0-.198.161c-1.18 1.396-2.726 1.86-4.494 1.788-3.895-.153-6.513-3.03-6.875-6.616-.243-2.397.312-4.58 1.912-6.422 1.475-1.7 3.4-2.35 5.617-2.246a5.631 5.631 0 0 1 3.79 1.674Zm.236 5.951a3.656 3.656 0 1 0-7.313-.003 3.656 3.656 0 0 0 7.313.003Zm9.192 1.37a2.882 2.882 0 0 0 2.521 2.613c1.18.16 2.225-.091 3.096-.937a.447.447 0 0 1 .272-.132h4.276a.501.501 0 0 1 0 .136c-1.063 2.195-2.663 3.796-5.1 4.412-4.174 1.063-8.518-1.828-9.125-6.076-.457-3.187.54-5.844 3.215-7.69 4.34-3 10.313-.577 11.461 4.583.197.907.247 1.84.146 2.763-.027.28-.116.344-.384.344-3.32-.01-6.643-.01-9.967 0l-.41-.017Zm6.489-2.876c-.134-1.374-1.535-2.448-3.173-2.454-1.7 0-3.03 1.008-3.188 2.454h6.36ZM107.5 20.99h-4.296v-7.763a6.925 6.925 0 0 0-.194-1.577c-.212-.875-.82-1.34-1.725-1.394a3.968 3.968 0 0 0-.927.034c-1.011.18-1.625.889-1.75 2a8.441 8.441 0 0 0-.055.956v7.744h-4.284V6.75h4.037v1.437c.076-.076.147-.156.213-.24a4.083 4.083 0 0 1 2.975-1.675c1.775-.155 3.364.236 4.675 1.515a4.246 4.246 0 0 1 1.256 2.823c.047.562.063 1.128.063 1.7v8.287l.012.393ZM72.183 10.687h-4.1c-.312-1.013-1.16-1.396-2.075-.943-.638.316-.79 1.02-.257 1.487.35.293.75.519 1.181.668.772.28 1.57.48 2.355.72a5.4 5.4 0 0 1 2.272 1.256c1.13 1.116 1.424 2.958.705 4.507-.719 1.55-2.01 2.395-3.598 2.828-1.587.434-3.155.398-4.675-.29-1.73-.789-2.637-2.191-2.894-4.038a.554.554 0 0 1 0-.137c.075-.01.15-.018.225-.02h3.616a.287.287 0 0 1 .293.131c.02.033.033.069.038.106.347 1.097 2.072 1.475 2.875.638a1.104 1.104 0 0 0-.112-1.621 3.703 3.703 0 0 0-1.063-.617c-.874-.327-1.784-.575-2.663-.903a7.563 7.563 0 0 1-1.487-.722 3.575 3.575 0 0 1-1.133-4.835 4.816 4.816 0 0 1 1.242-1.394c1.978-1.428 4.169-1.71 6.432-.827 1.774.708 2.613 2.14 2.823 4.006Zm1.774-3.973h4.25v14.261h-4.25V6.714Zm-.441-4.072a2.57 2.57 0 1 1 3.54 2.375 2.604 2.604 0 0 1-1.968 0 2.552 2.552 0 0 1-1.572-2.368v-.007Z" fill="#313030"/></g><defs><clipPath id="a"><path fill="#fff" d="M0 0h120v39.5H0z"/></clipPath></defs></svg>